<?xml version="1.0" encoding="utf-8"?>
<!-- Generator: Adobe Illustrator 26.3.1, SVG Export Plug-In . SVG Version: 6.00 Build 0)  -->
<svg version="1.1" xmlns="http://www.w3.org/2000/svg" xmlns:xlink="http://www.w3.org/1999/xlink" x="0px" y="0px"
	 viewBox="0 0 595.3 841.9" style="enable-background:new 0 0 595.3 841.9;" xml:space="preserve">
<style type="text/css">
	.st0{fill:#FFFFFF;stroke:#000000;}
	.st1{fill:#EBD9B2;stroke:#000000;}
	.st2{fill:none;}
	.st3{font-family:'ArialMT';}
	.st4{font-size:14px;}
	.st5{font-size:10px;}
	.st6{fill:none;stroke:#000000;}
	.st7{font-family:'MyriadPro-Regular';}
	.st8{font-size:18px;}
</style>
<g id="lines">
	<line class="st0" x1="132.9" y1="80.4" x2="182.3" y2="84.4"/>
	<line class="st0" x1="352.3" y1="119.4" x2="352.3" y2="171.3"/>
	<path class="st0" d="M330.9,247.7"/>
	<polyline class="st0" points="306.6,251.3 305.5,329.6 89.6,329.6 89.6,347.7 	"/>
	<path class="st0" d="M320.1,251.3"/>
	<line class="st0" x1="160.1" y1="329.6" x2="160.1" y2="464.5"/>
	<path class="st0" d="M320.1,251.3"/>
	<line class="st0" x1="341.8" y1="251.3" x2="341.2" y2="345.7"/>
	<polyline class="st0" points="389.6,251.3 389.6,445.5 449.2,445.5 449.2,459.6 	"/>
	<line class="st0" x1="416.6" y1="251.3" x2="416.6" y2="343.5"/>
	<polyline class="st0" points="413.5,599.6 413.5,622.7 127.9,622.7 127.9,654.8 	"/>
	<line class="st0" x1="464.3" y1="599.6" x2="464.3" y2="649.6"/>
</g>
<g id="Laag_1" xmlns:ev="http://www.w3.org/2001/xml-events">
	<rect x="25.7" y="39.6" class="st1" width="107.2" height="30"/>
	<rect x="25.6" y="69.6" class="st0" width="107.2" height="20"/>
	<rect x="187.3" y="39.4" class="st1" width="330" height="30"/>
	<rect x="187.3" y="69.4" class="st0" width="330" height="50"/>
	<rect x="13" y="173.6" class="st1" width="214.5" height="30"/>
	<rect x="13" y="203.6" class="st0" width="214.5" height="110"/>
	<rect x="306.6" y="171.3" class="st1" width="110" height="30"/>
	<rect x="306.6" y="201.3" class="st0" width="110" height="50"/>
	<rect x="16.9" y="347.7" class="st1" width="140.2" height="30"/>
	<rect x="16.9" y="377.7" class="st0" width="140.2" height="50"/>
	<rect x="401.1" y="459.6" class="st1" width="126.5" height="30"/>
	<rect x="401.1" y="489.6" class="st0" width="126.5" height="110"/>
	<rect x="165.1" y="345.7" class="st1" width="220" height="30"/>
	<rect x="165.1" y="375.7" class="st0" width="220" height="80"/>
	<rect x="397.4" y="343.5" class="st1" width="123.8" height="30"/>
	<rect x="397.4" y="373.5" class="st0" width="123.8" height="50"/>
	<rect x="62.2" y="654.8" class="st1" width="140.2" height="30"/>
	<rect x="62.2" y="684.8" class="st0" width="140.2" height="65"/>
	<rect x="349.8" y="649.6" class="st1" width="192.5" height="30"/>
	<rect x="349.8" y="679.6" class="st0" width="192.5" height="125"/>
	<rect x="10.1" y="464.5" class="st1" width="225.5" height="30"/>
	<rect x="10.1" y="494.5" class="st0" width="225.5" height="50"/>
	<path class="st2" d=""/>
	<path d="M181.8,80.4l8.5,2.9l-7.4,5L181.8,80.4z"/>
	<path marker-end="url(#id1)" d="M182.3,84.4"/>
	<path class="st2" d=""/>
	<path class="st2" d=""/>
	<path d="M93.6,339.4l-3.7,8.1l-4.3-7.9L93.6,339.4z"/>
	<path marker-end="url(#id3)" d="M266.5,260.7"/>
	<path class="st2" d=""/>
	<path class="st2" d=""/>
	<path class="st2" d=""/>
	<path class="st2" d=""/>
	<path marker-end="url(#id7)" d="M11.9,392.7"/>
	<path class="st2" d=""/>
	<path class="st2" d=""/>
	<path marker-end="url(#id9)" d="M389.6,504.8"/>
	<path class="st2" d=""/>
	<path class="st2" d=""/>
	<path class="st2" d=""/>
	<path class="st2" d=""/>
	<path marker-end="url(#id13)" d="M160.1,390.7"/>
	<path class="st2" d=""/>
	<path marker-end="url(#id14)" d="M392.4,388.5"/>
	<path class="st2" d=""/>
	<path marker-end="url(#id15)" d="M57.2,714.8"/>
	<path class="st2" d=""/>
	<path marker-end="url(#id16)" d="M57.2,699.8"/>
	<path class="st2" d=""/>
	<path marker-end="url(#id17)" d="M344.8,724.6"/>
	<path class="st2" d=""/>
	<path marker-end="url(#id18)" d="M344.8,709.6"/>
	<path class="st2" d=""/>
	<path marker-end="url(#id19)" d="M344.8,694.6"/>
	<path class="st2" d=""/>
	<path marker-end="url(#id20)" d="M344.8,739.6"/>
	<path class="st2" d=""/>
	<path marker-end="url(#id21)" d="M5.1,509.5"/>
	<g>
		<text transform="matrix(1 0 0 1 30.6479 59.6055)" class="st3 st4">Input dataset</text>
		<text transform="matrix(1 0 0 1 30.6479 84.6055)" class="st3 st5">output</text>
		<text transform="matrix(1 0 0 1 192.3301 59.415)" class="st3 st4">Convert compressed file to uncompressed.</text>
		<text transform="matrix(1 0 0 1 192.3301 84.415)" class="st3 st5">Choose compressed file</text>
		<text transform="matrix(1 0 0 1 192.3301 114.415)" class="st3 st5">output1</text>
		<text transform="matrix(1 0 0 1 17.9634 193.6055)" class="st3 st4">FastQC</text>
		<text transform="matrix(1 0 0 1 17.9634 218.6055)" class="st3 st5">Raw read data from your current history</text>
		<text transform="matrix(1 0 0 1 17.9634 233.6055)" class="st3 st5">Contaminant list</text>
		<text transform="matrix(1 0 0 1 17.9634 248.6055)" class="st3 st5">Adapter list</text>
		<text transform="matrix(1 0 0 1 17.9634 263.6055)" class="st3 st5">Submodule and Limit specifing file</text>
		<text transform="matrix(1 0 0 1 17.9634 293.6055)" class="st3 st5">html_file</text>
		<text transform="matrix(1 0 0 1 17.9634 308.6055)" class="st3 st5">text_file</text>
		<text transform="matrix(1 0 0 1 311.5724 191.3252)" class="st3 st4">Map with BWA</text>
		<text transform="matrix(1 0 0 1 311.5724 216.3252)" class="st3 st5">Select fastq dataset</text>
		<text transform="matrix(1 0 0 1 311.5724 246.3252)" class="st3 st5">bam_output</text>
		<text transform="matrix(1 0 0 1 21.8957 367.7409)" class="st3 st4">Samtools idxstats</text>
		<text transform="matrix(1 0 0 1 21.8957 392.7409)" class="st3 st5">BAM file</text>
		<text transform="matrix(1 0 0 1 21.8957 422.7409)" class="st3 st5">output</text>
		<text transform="matrix(1 0 0 1 406.0933 479.5686)" class="st3 st4">MACS2 callpeak</text>
		<text transform="matrix(1 0 0 1 406.0933 504.5686)" class="st3 st5">ChIP-Seq Treatment File</text>
		<text transform="matrix(1 0 0 1 406.0933 534.5686)" class="st3 st5">output_tabular</text>
		<text transform="matrix(1 0 0 1 406.0933 549.5686)" class="st3 st5">output_narrowpeaks</text>
		<text transform="matrix(1 0 0 1 406.0933 564.5686)" class="st3 st5">output_summits</text>
		<text transform="matrix(1 0 0 1 406.0933 579.5686)" class="st3 st5">output_treat_pileup</text>
		<text transform="matrix(1 0 0 1 406.0933 594.5686)" class="st3 st5">output_control_lambda</text>
		<text transform="matrix(1 0 0 1 170.0724 365.7399)" class="st3 st4">plotFingerprint</text>
		<text transform="matrix(1 0 0 1 170.0724 390.7399)" class="st3 st5">BAM/CRAM file</text>
		<text transform="matrix(1 0 0 1 170.0724 405.7399)" class="st3 st5">Blacklisted regions in BED/GTF format</text>
		<text transform="matrix(1 0 0 1 170.0724 420.7399)" class="st3 st5">Jensen-Shannon distance reference sample</text>
		<text transform="matrix(1 0 0 1 170.0724 450.7399)" class="st3 st5">outFileName</text>
		<text transform="matrix(1 0 0 1 402.3552 363.4595)" class="st3 st4">multiBamSummary</text>
		<text transform="matrix(1 0 0 1 402.3552 388.4595)" class="st3 st5">BAM/CRAM file</text>
		<text transform="matrix(1 0 0 1 402.3552 418.4595)" class="st3 st5">outFile</text>
		<text transform="matrix(1 0 0 1 67.209 674.8291)" class="st3 st4">VCF-BEDintersect:</text>
		<text transform="matrix(1 0 0 1 67.209 699.8291)" class="st3 st5">Select VCF dataset</text>
		<text transform="matrix(1 0 0 1 67.209 714.8291)" class="st3 st5">Select BED dataset</text>
		<text transform="matrix(1 0 0 1 67.209 744.8291)" class="st3 st5">out_file1</text>
		<text transform="matrix(1 0 0 1 354.7726 669.6094)" class="st3 st4">MACS2 bdgdiff</text>
		<text transform="matrix(1 0 0 1 354.7726 694.6094)" class="st3 st5">BedGraph for Treatment experiment 1</text>
		<text transform="matrix(1 0 0 1 354.7726 709.6094)" class="st3 st5">BedGraph for Treatment experiment 2</text>
		<text transform="matrix(1 0 0 1 354.7726 724.6094)" class="st3 st5">BedGraph for Control experiment 1</text>
		<text transform="matrix(1 0 0 1 354.7726 739.6094)" class="st3 st5">Bedgraph for Control experiment 2</text>
		<text transform="matrix(1 0 0 1 354.7726 769.6094)" class="st3 st5">output_cond1</text>
		<text transform="matrix(1 0 0 1 354.7726 784.6094)" class="st3 st5">output_cond2</text>
		<text transform="matrix(1 0 0 1 354.7726 799.6094)" class="st3 st5">output_both</text>
		<text transform="matrix(1 0 0 1 15.0543 484.4602)" class="st3 st4">plotCorrelation</text>
		<text transform="matrix(1 0 0 1 15.0543 509.4602)" class="st3 st5">Matrix file from the multiBamSummary tool</text>
		<text transform="matrix(1 0 0 1 15.0543 539.4602)" class="st3 st5">outFileName</text>
		<line class="st6" x1="187.3" y1="94.4" x2="517.3" y2="94.4"/>
		<line class="st6" x1="13" y1="273.6" x2="227.5" y2="273.6"/>
		<line class="st6" x1="306.6" y1="226.3" x2="416.6" y2="226.3"/>
		<line class="st6" x1="16.9" y1="402.7" x2="157.1" y2="402.7"/>
		<line class="st6" x1="401.1" y1="514.6" x2="527.6" y2="514.6"/>
		<line class="st6" x1="165.1" y1="430.7" x2="385.1" y2="430.7"/>
		<line class="st6" x1="397.4" y1="398.5" x2="521.1" y2="398.5"/>
		<line class="st6" x1="62.2" y1="724.8" x2="202.5" y2="724.8"/>
		<line class="st6" x1="349.8" y1="749.6" x2="542.3" y2="749.6"/>
		<line class="st6" x1="10.1" y1="519.5" x2="235.6" y2="519.5"/>
	</g>
	<rect x="16.8" y="564.6" class="st1" width="107.2" height="30"/>
	<rect x="28" y="571.7" class="st2" width="60.3" height="22.9"/>
	<rect x="37.6" y="572.6" class="st2" width="109.3" height="34.1"/>
	<text transform="matrix(1 0 0 1 37.6342 585.3618)" class="st7 st8">VCF file</text>
	<rect x="278.3" y="602.3" class="st2" width="2" height="2"/>
	<line class="st1" x1="88.3" y1="594.6" x2="89.6" y2="654.8"/>
	<path d="M164.1,455.5l-3.7,8.1l-4.3-7.9L164.1,455.5z"/>
	<path d="M345.1,339.4l-3.7,8.1l-4.3-7.9L345.1,339.4z"/>
	<path d="M420.6,335.3l-3.7,8.1l-4.3-7.9L420.6,335.3z"/>
	<path d="M453.2,451.4l-3.7,8.1l-4.3-7.9L453.2,451.4z"/>
	<path d="M468.3,640.5l-3.7,8.1l-4.3-7.9L468.3,640.5z"/>
	<path d="M131.9,645.5l-3.7,8.1l-4.3-7.9L131.9,645.5z"/>
	<path d="M92.3,645.5l-3.7,8.1l-4.3-7.9L92.3,645.5z"/>
	<path class="st0" d="M211.4,148.9"/>
	<line class="st0" x1="202.7" y1="119.4" x2="202.7" y2="171.3"/>
	<path d="M206.7,165.5l-3.7,8.1l-4.3-7.9L206.7,165.5z"/>
</g>
</svg>
