<?xml version="1.0" standalone="no"?>
<!DOCTYPE svg PUBLIC "-//W3C//DTD SVG 1.1//EN"
  "http://www.w3.org/Graphics/SVG/1.1/DTD/svg11.dtd">
<svg baseProfile="full" height="100%" version="1.1" width="100%" xmlns="http://www.w3.org/2000/svg" xmlns:ev="http://www.w3.org/2001/xml-events" xmlns:xlink="http://www.w3.org/1999/xlink"><defs><marker fill="black" id="id1" markerHeight="10" markerUnits="strokeWidth" markerWidth="8" orient="auto" overflow="visible" refX="0" refY="5" stroke="none" viewBox="0 0 10 5"><path d="M 0 0 L 10 5 L 0 10 z" /></marker><marker fill="black" id="id2" markerHeight="10" markerUnits="strokeWidth" markerWidth="8" orient="auto" overflow="visible" refX="0" refY="5" stroke="none" viewBox="0 0 10 5"><path d="M 0 0 L 10 5 L 0 10 z" /></marker><marker fill="black" id="id3" markerHeight="10" markerUnits="strokeWidth" markerWidth="8" orient="auto" overflow="visible" refX="0" refY="5" stroke="none" viewBox="0 0 10 5"><path d="M 0 0 L 10 5 L 0 10 z" /></marker><marker fill="black" id="id4" markerHeight="10" markerUnits="strokeWidth" markerWidth="8" orient="auto" overflow="visible" refX="0" refY="5" stroke="none" viewBox="0 0 10 5"><path d="M 0 0 L 10 5 L 0 10 z" /></marker><marker fill="black" id="id5" markerHeight="10" markerUnits="strokeWidth" markerWidth="8" orient="auto" overflow="visible" refX="0" refY="5" stroke="none" viewBox="0 0 10 5"><path d="M 0 0 L 10 5 L 0 10 z" /></marker><marker fill="black" id="id6" markerHeight="10" markerUnits="strokeWidth" markerWidth="8" orient="auto" overflow="visible" refX="0" refY="5" stroke="none" viewBox="0 0 10 5"><path d="M 0 0 L 10 5 L 0 10 z" /></marker><marker fill="black" id="id7" markerHeight="10" markerUnits="strokeWidth" markerWidth="8" orient="auto" overflow="visible" refX="0" refY="5" stroke="none" viewBox="0 0 10 5"><path d="M 0 0 L 10 5 L 0 10 z" /></marker><marker fill="black" id="id8" markerHeight="10" markerUnits="strokeWidth" markerWidth="8" orient="auto" overflow="visible" refX="0" refY="5" stroke="none" viewBox="0 0 10 5"><path d="M 0 0 L 10 5 L 0 10 z" /></marker><marker fill="black" id="id9" markerHeight="10" markerUnits="strokeWidth" markerWidth="8" orient="auto" overflow="visible" refX="0" refY="5" stroke="none" viewBox="0 0 10 5"><path d="M 0 0 L 10 5 L 0 10 z" /></marker><marker fill="black" id="id10" markerHeight="10" markerUnits="strokeWidth" markerWidth="8" orient="auto" overflow="visible" refX="0" refY="5" stroke="none" viewBox="0 0 10 5"><path d="M 0 0 L 10 5 L 0 10 z" /></marker><marker fill="black" id="id11" markerHeight="10" markerUnits="strokeWidth" markerWidth="8" orient="auto" overflow="visible" refX="0" refY="5" stroke="none" viewBox="0 0 10 5"><path d="M 0 0 L 10 5 L 0 10 z" /></marker><marker fill="black" id="id12" markerHeight="10" markerUnits="strokeWidth" markerWidth="8" orient="auto" overflow="visible" refX="0" refY="5" stroke="none" viewBox="0 0 10 5"><path d="M 0 0 L 10 5 L 0 10 z" /></marker><marker fill="black" id="id13" markerHeight="10" markerUnits="strokeWidth" markerWidth="8" orient="auto" overflow="visible" refX="0" refY="5" stroke="none" viewBox="0 0 10 5"><path d="M 0 0 L 10 5 L 0 10 z" /></marker><marker fill="black" id="id14" markerHeight="10" markerUnits="strokeWidth" markerWidth="8" orient="auto" overflow="visible" refX="0" refY="5" stroke="none" viewBox="0 0 10 5"><path d="M 0 0 L 10 5 L 0 10 z" /></marker><marker fill="black" id="id15" markerHeight="10" markerUnits="strokeWidth" markerWidth="8" orient="auto" overflow="visible" refX="0" refY="5" stroke="none" viewBox="0 0 10 5"><path d="M 0 0 L 10 5 L 0 10 z" /></marker><marker fill="black" id="id16" markerHeight="10" markerUnits="strokeWidth" markerWidth="8" orient="auto" overflow="visible" refX="0" refY="5" stroke="none" viewBox="0 0 10 5"><path d="M 0 0 L 10 5 L 0 10 z" /></marker><marker fill="black" id="id17" markerHeight="10" markerUnits="strokeWidth" markerWidth="8" orient="auto" overflow="visible" refX="0" refY="5" stroke="none" viewBox="0 0 10 5"><path d="M 0 0 L 10 5 L 0 10 z" /></marker><marker fill="black" id="id18" markerHeight="10" markerUnits="strokeWidth" markerWidth="8" orient="auto" overflow="visible" refX="0" refY="5" stroke="none" viewBox="0 0 10 5"><path d="M 0 0 L 10 5 L 0 10 z" /></marker><marker fill="black" id="id19" markerHeight="10" markerUnits="strokeWidth" markerWidth="8" orient="auto" overflow="visible" refX="0" refY="5" stroke="none" viewBox="0 0 10 5"><path d="M 0 0 L 10 5 L 0 10 z" /></marker><marker fill="black" id="id20" markerHeight="10" markerUnits="strokeWidth" markerWidth="8" orient="auto" overflow="visible" refX="0" refY="5" stroke="none" viewBox="0 0 10 5"><path d="M 0 0 L 10 5 L 0 10 z" /></marker><marker fill="black" id="id21" markerHeight="10" markerUnits="strokeWidth" markerWidth="8" orient="auto" overflow="visible" refX="0" refY="5" stroke="none" viewBox="0 0 10 5"><path d="M 0 0 L 10 5 L 0 10 z" /></marker></defs><rect fill="#EBD9B2" height="30" stroke="#000000" width="107.25" x="67.0703125" y="790.60546875" /><rect fill="#ffffff" height="20" stroke="rgb(0,0,0)" width="107.25" x="67.0703125" y="820.60546875" /><rect fill="#EBD9B2" height="30" stroke="#000000" width="107.25" x="899.5703125" y="483.61328125" /><rect fill="#ffffff" height="20" stroke="rgb(0,0,0)" width="107.25" x="899.5703125" y="513.61328125" /><rect fill="#EBD9B2" height="30" stroke="#000000" width="107.25" x="67.0703125" y="2537.59765625" /><rect fill="#ffffff" height="20" stroke="rgb(0,0,0)" width="107.25" x="67.0703125" y="2567.59765625" /><rect fill="#EBD9B2" height="30" stroke="#000000" width="330.0" x="344.5703125" y="764.609375" /><rect fill="#ffffff" height="50" stroke="rgb(0,0,0)" width="330.0" x="344.5703125" y="794.609375" /><rect fill="#EBD9B2" height="30" stroke="#000000" width="330.0" x="344.5703125" y="2511.6015625" /><rect fill="#ffffff" height="50" stroke="rgb(0,0,0)" width="330.0" x="344.5703125" y="2541.6015625" /><rect fill="#EBD9B2" height="30" stroke="#000000" width="214.5" x="622.0703125" y="795.60546875" /><rect fill="#ffffff" height="110" stroke="rgb(0,0,0)" width="214.5" x="622.0703125" y="825.60546875" /><rect fill="#EBD9B2" height="30" stroke="#000000" width="110.0" x="622.0703125" y="1130.60546875" /><rect fill="#ffffff" height="50" stroke="rgb(0,0,0)" width="110.0" x="622.0703125" y="1160.60546875" /><rect fill="#EBD9B2" height="30" stroke="#000000" width="110.0" x="622.0703125" y="2501.6015625" /><rect fill="#ffffff" height="50" stroke="rgb(0,0,0)" width="110.0" x="622.0703125" y="2531.6015625" /><rect fill="#EBD9B2" height="30" stroke="#000000" width="214.5" x="622.0703125" y="2694.609375" /><rect fill="#ffffff" height="110" stroke="rgb(0,0,0)" width="214.5" x="622.0703125" y="2724.609375" /><rect fill="#EBD9B2" height="30" stroke="#000000" width="140.25" x="899.5703125" y="310.60546875" /><rect fill="#ffffff" height="50" stroke="rgb(0,0,0)" width="140.25" x="899.5703125" y="340.60546875" /><rect fill="#EBD9B2" height="30" stroke="#000000" width="126.5" x="899.5703125" y="624.609375" /><rect fill="#ffffff" height="110" stroke="rgb(0,0,0)" width="126.5" x="899.5703125" y="654.609375" /><rect fill="#EBD9B2" height="30" stroke="#000000" width="126.5" x="899.5703125" y="1102.59765625" /><rect fill="#ffffff" height="110" stroke="rgb(0,0,0)" width="126.5" x="899.5703125" y="1132.59765625" /><rect fill="#EBD9B2" height="30" stroke="#000000" width="126.5" x="899.5703125" y="1580.60546875" /><rect fill="#ffffff" height="110" stroke="rgb(0,0,0)" width="126.5" x="899.5703125" y="1610.60546875" /><rect fill="#EBD9B2" height="30" stroke="#000000" width="126.5" x="899.5703125" y="2058.61328125" /><rect fill="#ffffff" height="110" stroke="rgb(0,0,0)" width="126.5" x="899.5703125" y="2088.61328125" /><rect fill="#EBD9B2" height="30" stroke="#000000" width="140.25" x="899.5703125" y="2536.6015625" /><rect fill="#ffffff" height="50" stroke="rgb(0,0,0)" width="140.25" x="899.5703125" y="2566.6015625" /><rect fill="#EBD9B2" height="30" stroke="#000000" width="220.0" x="899.5703125" y="2709.609375" /><rect fill="#ffffff" height="80" stroke="rgb(0,0,0)" width="220.0" x="899.5703125" y="2739.609375" /><rect fill="#EBD9B2" height="30" stroke="#000000" width="123.75" x="899.5703125" y="3004.609375" /><rect fill="#ffffff" height="50" stroke="rgb(0,0,0)" width="123.75" x="899.5703125" y="3034.609375" /><rect fill="#EBD9B2" height="30" stroke="#000000" width="140.25" x="1187.0703125" y="1135.60546875" /><rect fill="#ffffff" height="65" stroke="rgb(0,0,0)" width="140.25" x="1187.0703125" y="1165.60546875" /><rect fill="#EBD9B2" height="30" stroke="#000000" width="192.5" x="1187.0703125" y="1328.61328125" /><rect fill="#ffffff" height="125" stroke="rgb(0,0,0)" width="192.5" x="1187.0703125" y="1358.61328125" /><rect fill="#EBD9B2" height="30" stroke="#000000" width="225.5" x="1187.0703125" y="3036.6015625" /><rect fill="#ffffff" height="50" stroke="rgb(0,0,0)" width="225.5" x="1187.0703125" y="3066.6015625" /><line marker-end="url(#id1)" stroke="#000000" x1="179.3203125" x2="339.5703125" y1="830.60546875" y2="809.609375" /><line marker-end="url(#id2)" stroke="#000000" x1="179.3203125" x2="339.5703125" y1="2577.59765625" y2="2556.6015625" /><line marker-end="url(#id3)" stroke="#000000" x1="679.5703125" x2="617.0703125" y1="834.609375" y2="840.60546875" /><line marker-end="url(#id4)" stroke="#000000" x1="679.5703125" x2="617.0703125" y1="834.609375" y2="1175.60546875" /><line marker-end="url(#id5)" stroke="#000000" x1="679.5703125" x2="617.0703125" y1="2581.6015625" y2="2546.6015625" /><line marker-end="url(#id6)" stroke="#000000" x1="679.5703125" x2="617.0703125" y1="2581.6015625" y2="2739.609375" /><line marker-end="url(#id7)" stroke="#000000" x1="737.0703125" x2="894.5703125" y1="1200.60546875" y2="355.60546875" /><line marker-end="url(#id8)" stroke="#000000" x1="737.0703125" x2="894.5703125" y1="1200.60546875" y2="669.609375" /><line marker-end="url(#id9)" stroke="#000000" x1="737.0703125" x2="894.5703125" y1="1200.60546875" y2="1147.59765625" /><line marker-end="url(#id10)" stroke="#000000" x1="737.0703125" x2="894.5703125" y1="2571.6015625" y2="1625.60546875" /><line marker-end="url(#id11)" stroke="#000000" x1="737.0703125" x2="894.5703125" y1="2571.6015625" y2="2103.61328125" /><line marker-end="url(#id12)" stroke="#000000" x1="737.0703125" x2="894.5703125" y1="2571.6015625" y2="2581.6015625" /><line marker-end="url(#id13)" stroke="#000000" x1="737.0703125" x2="894.5703125" y1="1200.60546875" y2="2754.609375" /><line marker-end="url(#id14)" stroke="#000000" x1="737.0703125" x2="894.5703125" y1="1200.60546875" y2="3049.609375" /><line marker-end="url(#id15)" stroke="#000000" x1="1031.0703125" x2="1182.0703125" y1="1202.59765625" y2="1195.60546875" /><line marker-end="url(#id16)" stroke="#000000" x1="1011.8203125" x2="1182.0703125" y1="523.61328125" y2="1180.60546875" /><line marker-end="url(#id17)" stroke="#000000" x1="1031.0703125" x2="1182.0703125" y1="1710.60546875" y2="1403.61328125" /><line marker-end="url(#id18)" stroke="#000000" x1="1031.0703125" x2="1182.0703125" y1="1217.59765625" y2="1388.61328125" /><line marker-end="url(#id19)" stroke="#000000" x1="1031.0703125" x2="1182.0703125" y1="1695.60546875" y2="1373.61328125" /><line marker-end="url(#id20)" stroke="#000000" x1="1031.0703125" x2="1182.0703125" y1="1232.59765625" y2="1418.61328125" /><line marker-end="url(#id21)" stroke="#000000" x1="1028.3203125" x2="1182.0703125" y1="3074.609375" y2="3081.6015625" /><g style="font-family: Helvetica, Arial, FreeSans, Sans, sans, sans-serif;"><text style="font-size:14px" x="72.0703125" y="810.60546875">Input dataset</text><text style="font-size:10px" x="72.0703125" y="835.60546875">output</text><text style="font-size:14px" x="904.5703125" y="503.61328125">Input dataset</text><text style="font-size:10px" x="904.5703125" y="528.61328125">output</text><text style="font-size:14px" x="72.0703125" y="2557.59765625">Input dataset</text><text style="font-size:10px" x="72.0703125" y="2582.59765625">output</text><text style="font-size:14px" x="349.5703125" y="784.609375">Convert compressed file to uncompressed.</text><text style="font-size:10px" x="349.5703125" y="809.609375">Choose compressed file</text><text style="font-size:10px" x="349.5703125" y="839.609375">output1</text><text style="font-size:14px" x="349.5703125" y="2531.6015625">Convert compressed file to uncompressed.</text><text style="font-size:10px" x="349.5703125" y="2556.6015625">Choose compressed file</text><text style="font-size:10px" x="349.5703125" y="2586.6015625">output1</text><text style="font-size:14px" x="627.0703125" y="815.60546875">FastQC</text><text style="font-size:10px" x="627.0703125" y="840.60546875">Raw read data from your current history</text><text style="font-size:10px" x="627.0703125" y="855.60546875">Contaminant list</text><text style="font-size:10px" x="627.0703125" y="870.60546875">Adapter list</text><text style="font-size:10px" x="627.0703125" y="885.60546875">Submodule and Limit specifing file</text><text style="font-size:10px" x="627.0703125" y="915.60546875">html_file</text><text style="font-size:10px" x="627.0703125" y="930.60546875">text_file</text><text style="font-size:14px" x="627.0703125" y="1150.60546875">Map with BWA</text><text style="font-size:10px" x="627.0703125" y="1175.60546875">Select fastq dataset</text><text style="font-size:10px" x="627.0703125" y="1205.60546875">bam_output</text><text style="font-size:14px" x="627.0703125" y="2521.6015625">Map with BWA</text><text style="font-size:10px" x="627.0703125" y="2546.6015625">Select fastq dataset</text><text style="font-size:10px" x="627.0703125" y="2576.6015625">bam_output</text><text style="font-size:14px" x="627.0703125" y="2714.609375">FastQC</text><text style="font-size:10px" x="627.0703125" y="2739.609375">Raw read data from your current history</text><text style="font-size:10px" x="627.0703125" y="2754.609375">Contaminant list</text><text style="font-size:10px" x="627.0703125" y="2769.609375">Adapter list</text><text style="font-size:10px" x="627.0703125" y="2784.609375">Submodule and Limit specifing file</text><text style="font-size:10px" x="627.0703125" y="2814.609375">html_file</text><text style="font-size:10px" x="627.0703125" y="2829.609375">text_file</text><text style="font-size:14px" x="904.5703125" y="330.60546875">Samtools idxstats</text><text style="font-size:10px" x="904.5703125" y="355.60546875">BAM file</text><text style="font-size:10px" x="904.5703125" y="385.60546875">output</text><text style="font-size:14px" x="904.5703125" y="644.609375">MACS2 callpeak</text><text style="font-size:10px" x="904.5703125" y="669.609375">ChIP-Seq Treatment File</text><text style="font-size:10px" x="904.5703125" y="699.609375">output_tabular</text><text style="font-size:10px" x="904.5703125" y="714.609375">output_narrowpeaks</text><text style="font-size:10px" x="904.5703125" y="729.609375">output_summits</text><text style="font-size:10px" x="904.5703125" y="744.609375">output_treat_pileup</text><text style="font-size:10px" x="904.5703125" y="759.609375">output_control_lambda</text><text style="font-size:14px" x="904.5703125" y="1122.59765625">MACS2 callpeak</text><text style="font-size:10px" x="904.5703125" y="1147.59765625">ChIP-Seq Treatment File</text><text style="font-size:10px" x="904.5703125" y="1177.59765625">output_tabular</text><text style="font-size:10px" x="904.5703125" y="1192.59765625">output_narrowpeaks</text><text style="font-size:10px" x="904.5703125" y="1207.59765625">output_summits</text><text style="font-size:10px" x="904.5703125" y="1222.59765625">output_treat_pileup</text><text style="font-size:10px" x="904.5703125" y="1237.59765625">output_control_lambda</text><text style="font-size:14px" x="904.5703125" y="1600.60546875">MACS2 callpeak</text><text style="font-size:10px" x="904.5703125" y="1625.60546875">ChIP-Seq Treatment File</text><text style="font-size:10px" x="904.5703125" y="1655.60546875">output_tabular</text><text style="font-size:10px" x="904.5703125" y="1670.60546875">output_narrowpeaks</text><text style="font-size:10px" x="904.5703125" y="1685.60546875">output_summits</text><text style="font-size:10px" x="904.5703125" y="1700.60546875">output_treat_pileup</text><text style="font-size:10px" x="904.5703125" y="1715.60546875">output_control_lambda</text><text style="font-size:14px" x="904.5703125" y="2078.61328125">MACS2 callpeak</text><text style="font-size:10px" x="904.5703125" y="2103.61328125">ChIP-Seq Treatment File</text><text style="font-size:10px" x="904.5703125" y="2133.61328125">output_tabular</text><text style="font-size:10px" x="904.5703125" y="2148.61328125">output_narrowpeaks</text><text style="font-size:10px" x="904.5703125" y="2163.61328125">output_summits</text><text style="font-size:10px" x="904.5703125" y="2178.61328125">output_treat_pileup</text><text style="font-size:10px" x="904.5703125" y="2193.61328125">output_control_lambda</text><text style="font-size:14px" x="904.5703125" y="2556.6015625">Samtools idxstats</text><text style="font-size:10px" x="904.5703125" y="2581.6015625">BAM file</text><text style="font-size:10px" x="904.5703125" y="2611.6015625">output</text><text style="font-size:14px" x="904.5703125" y="2729.609375">plotFingerprint</text><text style="font-size:10px" x="904.5703125" y="2754.609375">BAM/CRAM file</text><text style="font-size:10px" x="904.5703125" y="2769.609375">Blacklisted regions in BED/GTF format</text><text style="font-size:10px" x="904.5703125" y="2784.609375">Jensen-Shannon distance reference sample</text><text style="font-size:10px" x="904.5703125" y="2814.609375">outFileName</text><text style="font-size:14px" x="904.5703125" y="3024.609375">multiBamSummary</text><text style="font-size:10px" x="904.5703125" y="3049.609375">BAM/CRAM file</text><text style="font-size:10px" x="904.5703125" y="3079.609375">outFile</text><text style="font-size:14px" x="1192.0703125" y="1155.60546875">VCF-BEDintersect:</text><text style="font-size:10px" x="1192.0703125" y="1180.60546875">Select VCF dataset</text><text style="font-size:10px" x="1192.0703125" y="1195.60546875">Select BED dataset</text><text style="font-size:10px" x="1192.0703125" y="1225.60546875">out_file1</text><text style="font-size:14px" x="1192.0703125" y="1348.61328125">MACS2 bdgdiff</text><text style="font-size:10px" x="1192.0703125" y="1373.61328125">BedGraph for Treatment experiment 1</text><text style="font-size:10px" x="1192.0703125" y="1388.61328125">BedGraph for Treatment experiment 2</text><text style="font-size:10px" x="1192.0703125" y="1403.61328125">BedGraph for Control experiment 1</text><text style="font-size:10px" x="1192.0703125" y="1418.61328125">Bedgraph for Control experiment 2</text><text style="font-size:10px" x="1192.0703125" y="1448.61328125">output_cond1</text><text style="font-size:10px" x="1192.0703125" y="1463.61328125">output_cond2</text><text style="font-size:10px" x="1192.0703125" y="1478.61328125">output_both</text><text style="font-size:14px" x="1192.0703125" y="3056.6015625">plotCorrelation</text><text style="font-size:10px" x="1192.0703125" y="3081.6015625">Matrix file from the multiBamSummary tool</text><text style="font-size:10px" x="1192.0703125" y="3111.6015625">outFileName</text><line stroke="rgb(0,0,0)" x1="344.5703125" x2="674.5703125" y1="819.609375" y2="819.609375" /><circle cx="174.3203125" cy="830.60546875" fill="#ffffff" r="5" stroke="#000000" /><line stroke="rgb(0,0,0)" x1="344.5703125" x2="674.5703125" y1="2566.6015625" y2="2566.6015625" /><circle cx="174.3203125" cy="2577.59765625" fill="#ffffff" r="5" stroke="#000000" /><line stroke="rgb(0,0,0)" x1="622.0703125" x2="836.5703125" y1="895.60546875" y2="895.60546875" /><circle cx="674.5703125" cy="834.609375" fill="#ffffff" r="5" stroke="#000000" /><line stroke="rgb(0,0,0)" x1="622.0703125" x2="732.0703125" y1="1185.60546875" y2="1185.60546875" /><circle cx="674.5703125" cy="834.609375" fill="#ffffff" r="5" stroke="#000000" /><line stroke="rgb(0,0,0)" x1="622.0703125" x2="732.0703125" y1="2556.6015625" y2="2556.6015625" /><circle cx="674.5703125" cy="2581.6015625" fill="#ffffff" r="5" stroke="#000000" /><line stroke="rgb(0,0,0)" x1="622.0703125" x2="836.5703125" y1="2794.609375" y2="2794.609375" /><circle cx="674.5703125" cy="2581.6015625" fill="#ffffff" r="5" stroke="#000000" /><line stroke="rgb(0,0,0)" x1="899.5703125" x2="1039.8203125" y1="365.60546875" y2="365.60546875" /><circle cx="732.0703125" cy="1200.60546875" fill="#ffffff" r="5" stroke="#000000" /><line stroke="rgb(0,0,0)" x1="899.5703125" x2="1026.0703125" y1="679.609375" y2="679.609375" /><circle cx="732.0703125" cy="1200.60546875" fill="#ffffff" r="5" stroke="#000000" /><line stroke="rgb(0,0,0)" x1="899.5703125" x2="1026.0703125" y1="1157.59765625" y2="1157.59765625" /><circle cx="732.0703125" cy="1200.60546875" fill="#ffffff" r="5" stroke="#000000" /><line stroke="rgb(0,0,0)" x1="899.5703125" x2="1026.0703125" y1="1635.60546875" y2="1635.60546875" /><circle cx="732.0703125" cy="2571.6015625" fill="#ffffff" r="5" stroke="#000000" /><line stroke="rgb(0,0,0)" x1="899.5703125" x2="1026.0703125" y1="2113.61328125" y2="2113.61328125" /><circle cx="732.0703125" cy="2571.6015625" fill="#ffffff" r="5" stroke="#000000" /><line stroke="rgb(0,0,0)" x1="899.5703125" x2="1039.8203125" y1="2591.6015625" y2="2591.6015625" /><circle cx="732.0703125" cy="2571.6015625" fill="#ffffff" r="5" stroke="#000000" /><line stroke="rgb(0,0,0)" x1="899.5703125" x2="1119.5703125" y1="2794.609375" y2="2794.609375" /><circle cx="732.0703125" cy="1200.60546875" fill="#ffffff" r="5" stroke="#000000" /><line stroke="rgb(0,0,0)" x1="899.5703125" x2="1023.3203125" y1="3059.609375" y2="3059.609375" /><circle cx="732.0703125" cy="1200.60546875" fill="#ffffff" r="5" stroke="#000000" /><line stroke="rgb(0,0,0)" x1="1187.0703125" x2="1327.3203125" y1="1205.60546875" y2="1205.60546875" /><circle cx="1026.0703125" cy="1202.59765625" fill="#ffffff" r="5" stroke="#000000" /><circle cx="1006.8203125" cy="523.61328125" fill="#ffffff" r="5" stroke="#000000" /><line stroke="rgb(0,0,0)" x1="1187.0703125" x2="1379.5703125" y1="1428.61328125" y2="1428.61328125" /><circle cx="1026.0703125" cy="1710.60546875" fill="#ffffff" r="5" stroke="#000000" /><circle cx="1026.0703125" cy="1217.59765625" fill="#ffffff" r="5" stroke="#000000" /><circle cx="1026.0703125" cy="1695.60546875" fill="#ffffff" r="5" stroke="#000000" /><circle cx="1026.0703125" cy="1232.59765625" fill="#ffffff" r="5" stroke="#000000" /><line stroke="rgb(0,0,0)" x1="1187.0703125" x2="1412.5703125" y1="3091.6015625" y2="3091.6015625" /><circle cx="1023.3203125" cy="3074.609375" fill="#ffffff" r="5" stroke="#000000" /></g></svg>