<?xml version="1.0" encoding="utf-8"?>
<!-- Generator: Adobe Illustrator 26.3.1, SVG Export Plug-In . SVG Version: 6.00 Build 0)  -->
<svg version="1.1" id="Laag_1" xmlns="http://www.w3.org/2000/svg" xmlns:xlink="http://www.w3.org/1999/xlink" x="0px" y="0px"
	 viewBox="0 0 595.3 841.9" style="enable-background:new 0 0 595.3 841.9;" xml:space="preserve">
<style type="text/css">
	.st0{fill:none;stroke:#000000;}
	.st1{fill:#FFFFFF;stroke:#000000;}
	.st2{fill:#EBD9B2;stroke:#000000;}
	.st3{font-family:'ArialMT';}
	.st4{font-size:14px;}
	.st5{font-size:10px;}
	.st6{fill:none;}
	.st7{font-size:18px;}
</style>
<g id="lines">
	<line class="st0" x1="132.9" y1="80.4" x2="182.3" y2="84.4"/>
	<line class="st0" x1="352.3" y1="119.4" x2="352.3" y2="171.3"/>
	<path class="st1" d="M330.9,247.7"/>
	<polyline class="st1" points="306.6,251.3 305.5,329.6 89.6,329.6 89.6,347.7 	"/>
	<path class="st1" d="M320.1,251.3"/>
	<line class="st0" x1="160.1" y1="329.6" x2="160.1" y2="464.5"/>
	<path class="st1" d="M320.1,251.3"/>
	<line class="st0" x1="341.8" y1="251.3" x2="341.2" y2="345.7"/>
	<line class="st0" x1="416.6" y1="251.3" x2="416.6" y2="343.5"/>
</g>
<g id="Laag_1_00000152975762207922525320000007793785469781229723_" xmlns:ev="http://www.w3.org/2001/xml-events">
	<rect x="25.7" y="39.6" class="st2" width="107.2" height="30"/>
	<rect x="25.6" y="69.6" class="st1" width="107.2" height="20"/>
	<rect x="187.3" y="39.4" class="st2" width="330" height="30"/>
	<rect x="187.3" y="69.4" class="st1" width="330" height="50"/>
	<rect x="13" y="173.6" class="st2" width="214.5" height="30"/>
	<rect x="13" y="203.6" class="st1" width="214.5" height="110"/>
	<rect x="306.6" y="171.3" class="st2" width="110" height="30"/>
	<rect x="306.6" y="201.3" class="st1" width="110" height="50"/>
	<rect x="16.9" y="347.7" class="st2" width="140.2" height="30"/>
	<rect x="16.9" y="377.7" class="st1" width="140.2" height="50"/>
	<rect x="93.9" y="464.6" class="st2" width="126.5" height="30"/>
	<rect x="93.9" y="494.6" class="st1" width="126.5" height="110"/>
	<rect x="165.1" y="345.7" class="st2" width="220" height="30"/>
	<rect x="165.1" y="375.7" class="st1" width="220" height="80"/>
	<rect x="397.4" y="343.5" class="st2" width="123.8" height="30"/>
	<rect x="397.4" y="373.5" class="st1" width="123.8" height="50"/>
	<rect x="355.3" y="667.3" class="st2" width="140.2" height="30"/>
	<rect x="355.3" y="697.3" class="st1" width="140.2" height="65"/>
	<rect x="46.6" y="647.1" class="st2" width="192.5" height="30"/>
	<rect x="46.6" y="677.1" class="st1" width="192.5" height="125"/>
	<rect x="349" y="462.3" class="st2" width="225.5" height="30"/>
	<rect x="349" y="492.3" class="st1" width="225.5" height="50"/>
	<path class="st1" d="M0,0"/>
	<path d="M181.8,80.4l8.5,2.9l-7.4,5L181.8,80.4z"/>
	<path marker-end="url(#id1)" d="M182.3,84.4"/>
	<path d="M0,0"/>
	<path d="M0,0"/>
	<path d="M93.6,339.4l-3.7,8.1l-4.3-7.9L93.6,339.4z"/>
	<path marker-end="url(#id3)" d="M266.5,260.7"/>
	<path d="M0,0"/>
	<path d="M0,0"/>
	<path d="M0,0"/>
	<path d="M0,0"/>
	<path marker-end="url(#id7)" d="M11.9,392.7"/>
	<path d="M0,0"/>
	<path d="M0,0"/>
	<path marker-end="url(#id9)" d="M389.6,504.8"/>
	<path d="M0,0"/>
	<path d="M0,0"/>
	<path d="M0,0"/>
	<path d="M0,0"/>
	<path marker-end="url(#id13)" d="M160.1,390.7"/>
	<path d="M0,0"/>
	<path marker-end="url(#id14)" d="M392.4,388.5"/>
	<path d="M0,0"/>
	<path marker-end="url(#id15)" d="M350.3,727.3"/>
	<path d="M0,0"/>
	<path marker-end="url(#id16)" d="M350.3,712.3"/>
	<path d="M0,0"/>
	<path marker-end="url(#id17)" d="M41.6,722.1"/>
	<path d="M0,0"/>
	<path marker-end="url(#id18)" d="M41.6,707.1"/>
	<path d="M0,0"/>
	<path marker-end="url(#id19)" d="M41.6,692.1"/>
	<path d="M0,0"/>
	<path marker-end="url(#id20)" d="M41.6,737.1"/>
	<path d="M0,0"/>
	<path marker-end="url(#id21)" d="M344,507.3"/>
	<g>
		<text transform="matrix(1 0 0 1 30.6479 59.6055)" class="st3 st4">Input dataset</text>
		<text transform="matrix(1 0 0 1 30.6479 84.6055)" class="st3 st5">output</text>
		<text transform="matrix(1 0 0 1 192.3301 59.415)" class="st3 st4">Convert compressed file to uncompressed.</text>
		<text transform="matrix(1 0 0 1 192.3301 84.415)" class="st3 st5">Choose compressed file</text>
		<text transform="matrix(1 0 0 1 192.3301 114.415)" class="st3 st5">output1</text>
		<text transform="matrix(1 0 0 1 17.9634 193.6055)" class="st3 st4">FastQC</text>
		<text transform="matrix(1 0 0 1 17.9634 218.6055)" class="st3 st5">Raw read data from your current history</text>
		<text transform="matrix(1 0 0 1 17.9634 233.6055)" class="st3 st5">Contaminant list</text>
		<text transform="matrix(1 0 0 1 17.9634 248.6055)" class="st3 st5">Adapter list</text>
		<text transform="matrix(1 0 0 1 17.9634 263.6055)" class="st3 st5">Submodule and Limit specifing file</text>
		<text transform="matrix(1 0 0 1 17.9634 293.6055)" class="st3 st5">html_file</text>
		<text transform="matrix(1 0 0 1 17.9634 308.6055)" class="st3 st5">text_file</text>
		<text transform="matrix(1 0 0 1 311.5724 191.3252)" class="st3 st4">Map with BWA</text>
		<text transform="matrix(1 0 0 1 311.5724 216.3252)" class="st3 st5">Select fastq dataset</text>
		<text transform="matrix(1 0 0 1 311.5724 246.3252)" class="st3 st5">bam_output</text>
		<text transform="matrix(1 0 0 1 21.8957 367.7409)" class="st3 st4">Samtools idxstats</text>
		<text transform="matrix(1 0 0 1 21.8957 392.7409)" class="st3 st5">BAM file</text>
		<text transform="matrix(1 0 0 1 21.8957 422.7409)" class="st3 st5">output</text>
		<text transform="matrix(1 0 0 1 98.8433 484.5374)" class="st3 st4">MACS2 callpeak</text>
		<text transform="matrix(1 0 0 1 98.8433 509.5374)" class="st3 st5">ChIP-Seq Treatment File</text>
		<text transform="matrix(1 0 0 1 98.8433 539.5374)" class="st3 st5">output_tabular</text>
		<text transform="matrix(1 0 0 1 98.8433 554.5374)" class="st3 st5">output_narrowpeaks</text>
		<text transform="matrix(1 0 0 1 98.8433 569.5374)" class="st3 st5">output_summits</text>
		<text transform="matrix(1 0 0 1 98.8433 584.5374)" class="st3 st5">output_treat_pileup</text>
		<text transform="matrix(1 0 0 1 98.8433 599.5374)" class="st3 st5">output_control_lambda</text>
		<text transform="matrix(1 0 0 1 170.0724 365.7399)" class="st3 st4">plotFingerprint</text>
		<text transform="matrix(1 0 0 1 170.0724 390.7399)" class="st3 st5">BAM/CRAM file</text>
		<text transform="matrix(1 0 0 1 170.0724 405.7399)" class="st3 st5">Blacklisted regions in BED/GTF format</text>
		<text transform="matrix(1 0 0 1 170.0724 420.7399)" class="st3 st5">Jensen-Shannon distance reference sample</text>
		<text transform="matrix(1 0 0 1 170.0724 450.7399)" class="st3 st5">outFileName</text>
		<text transform="matrix(1 0 0 1 402.3552 363.4595)" class="st3 st4">multiBamSummary</text>
		<text transform="matrix(1 0 0 1 402.3552 388.4595)" class="st3 st5">BAM/CRAM file</text>
		<text transform="matrix(1 0 0 1 402.3552 418.4595)" class="st3 st5">outFile</text>
		<text transform="matrix(1 0 0 1 360.2936 687.3582)" class="st3 st4">VCF-BEDintersect:</text>
		<text transform="matrix(1 0 0 1 360.2936 712.3582)" class="st3 st5">Select VCF dataset</text>
		<text transform="matrix(1 0 0 1 360.2936 727.3582)" class="st3 st5">Select BED dataset</text>
		<text transform="matrix(1 0 0 1 360.2936 757.3582)" class="st3 st5">out_file1</text>
		<text transform="matrix(1 0 0 1 51.5768 667.1094)" class="st3 st4">MACS2 bdgdiff</text>
		<text transform="matrix(1 0 0 1 51.5768 692.1094)" class="st3 st5">BedGraph for Treatment experiment 1</text>
		<text transform="matrix(1 0 0 1 51.5768 707.1094)" class="st3 st5">BedGraph for Treatment experiment 2</text>
		<text transform="matrix(1 0 0 1 51.5768 722.1094)" class="st3 st5">BedGraph for Control experiment 1</text>
		<text transform="matrix(1 0 0 1 51.5768 737.1094)" class="st3 st5">Bedgraph for Control experiment 2</text>
		<text transform="matrix(1 0 0 1 51.5768 767.1094)" class="st3 st5">output_cond1</text>
		<text transform="matrix(1 0 0 1 51.5768 782.1094)" class="st3 st5">output_cond2</text>
		<text transform="matrix(1 0 0 1 51.5768 797.1094)" class="st3 st5">output_both</text>
		<text transform="matrix(1 0 0 1 354.0043 482.2173)" class="st3 st4">plotCorrelation</text>
		<text transform="matrix(1 0 0 1 354.0043 507.2173)" class="st3 st5">Matrix file from the multiBamSummary tool</text>
		<text transform="matrix(1 0 0 1 354.0043 537.2173)" class="st3 st5">outFileName</text>
		<line class="st0" x1="187.3" y1="94.4" x2="517.3" y2="94.4"/>
		<line class="st0" x1="13" y1="273.6" x2="227.5" y2="273.6"/>
		<line class="st0" x1="306.6" y1="226.3" x2="416.6" y2="226.3"/>
		<line class="st0" x1="16.9" y1="402.7" x2="157.1" y2="402.7"/>
		<line class="st0" x1="93.9" y1="519.6" x2="220.3" y2="519.6"/>
		<line class="st0" x1="165.1" y1="430.7" x2="385.1" y2="430.7"/>
		<line class="st0" x1="397.4" y1="398.5" x2="521.1" y2="398.5"/>
		<line class="st0" x1="355.3" y1="737.3" x2="495.6" y2="737.3"/>
		<line class="st0" x1="46.6" y1="747.1" x2="239.1" y2="747.1"/>
		<line class="st0" x1="349" y1="517.3" x2="574.5" y2="517.3"/>
	</g>
	<rect x="366.9" y="563.5" class="st2" width="107.2" height="30"/>
	<rect x="378.1" y="570.6" class="st6" width="60.3" height="22.9"/>
	<rect x="387.7" y="571.5" class="st6" width="109.3" height="34.1"/>
	<text transform="matrix(1 0 0 1 387.7327 584.2493)" class="st3 st7">VCF file</text>
	<rect x="345.4" y="692.3" class="st6" width="2" height="2"/>
	<path d="M164.1,455.5l-3.7,8.1l-4.3-7.9L164.1,455.5z"/>
	<path d="M345.1,339.4l-3.7,8.1l-4.3-7.9L345.1,339.4z"/>
	<path d="M420.6,335.3l-3.7,8.1l-4.3-7.9L420.6,335.3z"/>
	<path d="M453.2,451.4l-3.7,8.1l-4.3-7.9L453.2,451.4z"/>
	<path class="st1" d="M211.4,148.9"/>
	<line class="st0" x1="202.7" y1="119.4" x2="202.7" y2="171.3"/>
	<path d="M206.7,165.5l-3.7,8.1l-4.3-7.9L206.7,165.5z"/>
</g>
<path d="M451,423.5"/>
<path d="M148.6,605.6"/>
<path class="st0" d="M151.1,605.6v41.5V605.6z"/>
<polyline class="st0" points="189.1,604.6 189.1,634.5 387.8,634.5 387.7,667.1 "/>
<line class="st0" x1="420.6" y1="594.3" x2="420.6" y2="667.1"/>
<line class="st0" x1="449.2" y1="451.4" x2="451" y2="423.5"/>
<path d="M155.1,639l-3.7,8.1l-4.3-7.9L155.1,639z"/>
<path d="M391.7,658l-3.7,8.1l-4.3-7.9L391.7,658z"/>
<path d="M424.6,658l-3.7,8.1l-4.3-7.9L424.6,658z"/>
</svg>
